<svg aria-hidden="true" style="width:0;height:0;position:absolute;overflow:hidden" xmlns="http://www.w3.org/2000/svg"><defs><symbol id="menu-open" viewBox="0 0 57 32"><path d="M56.889 1.778c0 .982-.796 1.778-1.778 1.778H1.778a1.778 1.778 0 1 1 0-3.556h53.333c.982 0 1.778.796 1.778 1.778zm0 28.444c0 .982-.796 1.778-1.778 1.778H1.778a1.778 1.778 0 1 1 0-3.556h53.333c.982 0 1.778.796 1.778 1.778zm0-14.236c0 .974-.79 1.764-1.764 1.764H1.763a1.764 1.764 0 0 1 0-3.528h53.362c.974 0 1.764.789 1.764 1.764z"/></symbol><symbol id="phone-icon" viewBox="0 0 32 32"><path d="m25.64 20.347-3.387-.387a2.641 2.641 0 0 0-2.186.76l-2.453 2.453c-3.803-1.962-6.824-4.984-8.734-8.675l-.053-.112 2.467-2.467a2.656 2.656 0 0 0 .76-2.187l-.387-3.36a2.671 2.671 0 0 0-2.65-2.36H6.708c-1.507 0-2.76 1.253-2.667 2.76.707 11.387 9.813 20.48 21.187 21.187 1.507.093 2.76-1.16 2.76-2.667v-2.307c.013-1.347-1-2.48-2.347-2.64z"/></symbol><symbol id="icon-attach" viewBox="0 0 35 32"><path d="M6.3 31.999c-1.489 0-2.811-.559-3.967-1.677C1.111 29.139.5 27.704.5 26.016s.611-3.124 1.833-4.306L21.5 2.033c.978-.968 2.106-1.591 3.383-1.871s2.572-.204 3.883.226 2.522 1.172 3.633 2.226c.356.366.683.769.983 1.21s.544.903.733 1.387a8.796 8.796 0 0 1 .583 3.145c-.044 2.28-.844 4.183-2.4 5.71l-14.5 14.903c-.2.215-.444.328-.733.339s-.539-.081-.75-.274a1 1 0 0 1-.333-.726c-.011-.29.083-.543.283-.758l14.5-14.903c1.178-1.161 1.778-2.602 1.8-4.323s-.544-3.129-1.7-4.226c-.711-.71-1.5-1.247-2.367-1.613s-1.8-.484-2.8-.355-1.889.57-2.667 1.323L3.864 23.13c-.822.796-1.233 1.753-1.233 2.871s.411 2.075 1.233 2.871c.378.366.789.64 1.233.823s.911.253 1.4.21c.978-.043 1.889-.484 2.733-1.323l15.233-15.677a4.621 4.621 0 0 0 .634-.758c.111-.161.2-.333.267-.516s.111-.366.133-.548c.022-.183-.011-.371-.1-.565s-.222-.376-.4-.548c-.422-.43-.833-.624-1.233-.581-.422.043-.9.312-1.433.806L10.864 22.001c-.133.129-.289.22-.467.274s-.361.059-.55.016a.997.997 0 0 1-.483-.258c-.222-.194-.333-.43-.333-.71s.1-.527.3-.742L20.798 8.742c.911-.86 1.833-1.333 2.767-1.419 1.067-.086 2.044.301 2.933 1.161.844.796 1.217 1.731 1.117 2.806s-.639 2.086-1.617 3.032l-15.233 15.71c-1.244 1.204-2.633 1.849-4.167 1.936-.044 0-.094.005-.15.016s-.106.016-.15.016z"/></symbol><symbol id="menu-close" viewBox="0 0 32 32"><path fill="#487996" style="fill:var(--color1,#487996)" d="m18.613 15.912 12.96-12.96A1.777 1.777 0 0 0 29.064.447l.002-.002-12.96 12.96L3.146.426A1.777 1.777 0 0 0 .641 2.935l-.002-.002 12.96 12.977L.62 28.87a1.78 1.78 0 1 0 2.505 2.51l.002-.003 12.977-12.96 12.96 12.96a1.777 1.777 0 0 0 2.505-2.509l.002.002-12.96-12.96z"/></symbol></defs></svg>