<svg width="17" height="18" viewBox="0 0 17 18" fill="none" xmlns="http://www.w3.org/2000/svg">
<path fill-rule="evenodd" clip-rule="evenodd" d="M8.58165 2.00845C8.44599 2.00845 8.3159 2.06263 8.21998 2.15906C8.12405 2.25549 8.07017 2.38629 8.07017 2.52266L8.07017 14.6508L4.85194 11.4144C4.75589 11.3178 4.62563 11.2636 4.48981 11.2636C4.35399 11.2636 4.22372 11.3178 4.12768 11.4144C4.03164 11.5109 3.97768 11.6419 3.97768 11.7784C3.97768 11.915 4.03164 12.0459 4.12768 12.1425L8.21952 16.2562C8.26703 16.304 8.32347 16.342 8.38561 16.368C8.44775 16.3939 8.51437 16.4072 8.58165 16.4072C8.64892 16.4072 8.71554 16.3939 8.77768 16.368C8.83982 16.342 8.89626 16.304 8.94377 16.2562L13.0356 12.1425C13.0832 12.0947 13.1209 12.0379 13.1466 11.9755C13.1724 11.913 13.1856 11.846 13.1856 11.7784C13.1856 11.6419 13.1317 11.5109 13.0356 11.4144C12.9396 11.3178 12.8093 11.2636 12.6735 11.2636C12.5377 11.2636 12.4074 11.3178 12.3114 11.4144L9.09313 14.6508L9.09313 2.52266C9.09313 2.38629 9.03924 2.25549 8.94332 2.15906C8.8474 2.06263 8.7173 2.00845 8.58165 2.00845Z" fill="#008CEF"/>
</svg>
