<svg aria-hidden="true" style="position: absolute; width: 0; height: 0; overflow: hidden;" version="1.1" xmlns="http://www.w3.org/2000/svg" xmlns:xlink="http://www.w3.org/1999/xlink">
<defs>
<symbol id="menu-open" viewBox="0 0 57 32">
<path d="M56.889 1.778c0 0.982-0.796 1.778-1.778 1.778v0h-53.333c-0.982 0-1.778-0.796-1.778-1.778s0.796-1.778 1.778-1.778v0h53.333c0.982 0 1.778 0.796 1.778 1.778v0zM56.889 30.222c0 0.982-0.796 1.778-1.778 1.778v0h-53.333c-0.982 0-1.778-0.796-1.778-1.778s0.796-1.778 1.778-1.778v0h53.333c0.982 0 1.778 0.796 1.778 1.778v0zM56.889 15.986c0 0.974-0.79 1.764-1.764 1.764v0h-53.362c-0.974 0-1.764-0.79-1.764-1.764s0.79-1.764 1.764-1.764v0h53.362c0.974 0 1.764 0.789 1.764 1.764z"></path>
</symbol>
<symbol id="phone-icon" viewBox="0 0 32 32">
<path d="M25.64 20.347l-3.387-0.387c-0.093-0.012-0.201-0.018-0.31-0.018-0.733 0-1.396 0.297-1.876 0.778l-2.453 2.453c-3.803-1.962-6.824-4.984-8.734-8.675l-0.053-0.112 2.467-2.467c0.573-0.573 0.853-1.373 0.76-2.187l-0.387-3.36c-0.16-1.335-1.285-2.36-2.65-2.36-0.001 0-0.002 0-0.003 0h-2.306c-1.507 0-2.76 1.253-2.667 2.76 0.707 11.387 9.813 20.48 21.187 21.187 1.507 0.093 2.76-1.16 2.76-2.667v-2.307c0.013-1.347-1-2.48-2.347-2.64z"></path>
</symbol>
<symbol id="icon-attach" viewBox="0 0 35 32">
<path d="M6.3 31.999c-1.489 0-2.811-0.559-3.967-1.677-1.222-1.183-1.833-2.618-1.833-4.306s0.611-3.124 1.833-4.306l19.167-19.677c0.978-0.968 2.106-1.591 3.383-1.871s2.572-0.204 3.883 0.226c1.311 0.43 2.522 1.172 3.633 2.226 0.356 0.366 0.683 0.769 0.983 1.21s0.544 0.903 0.733 1.387c0.189 0.484 0.333 0.995 0.433 1.532s0.15 1.075 0.15 1.613c-0.044 2.28-0.844 4.183-2.4 5.71l-14.5 14.903c-0.2 0.215-0.444 0.328-0.733 0.339s-0.539-0.081-0.75-0.274c-0.211-0.194-0.322-0.436-0.333-0.726s0.083-0.543 0.283-0.758l14.5-14.903c1.178-1.161 1.778-2.602 1.8-4.323s-0.544-3.129-1.7-4.226c-0.711-0.71-1.5-1.247-2.367-1.613s-1.8-0.484-2.8-0.355-1.889 0.57-2.667 1.323l-19.167 19.677c-0.822 0.796-1.233 1.753-1.233 2.871s0.411 2.075 1.233 2.871c0.378 0.366 0.789 0.64 1.233 0.823s0.911 0.253 1.4 0.21c0.978-0.043 1.889-0.484 2.733-1.323l15.233-15.677c0.111-0.108 0.217-0.22 0.317-0.339s0.206-0.258 0.317-0.419c0.111-0.161 0.2-0.333 0.267-0.516s0.111-0.366 0.133-0.548c0.022-0.183-0.011-0.371-0.1-0.565s-0.222-0.376-0.4-0.548c-0.422-0.43-0.833-0.624-1.233-0.581-0.422 0.043-0.9 0.312-1.433 0.806l-11.467 11.806c-0.133 0.129-0.289 0.22-0.467 0.274s-0.361 0.059-0.55 0.016c-0.189-0.043-0.35-0.129-0.483-0.258-0.222-0.194-0.333-0.43-0.333-0.71s0.1-0.527 0.3-0.742l11.467-11.839c0.911-0.86 1.833-1.333 2.767-1.419 1.067-0.086 2.044 0.301 2.933 1.161 0.844 0.796 1.217 1.731 1.117 2.806s-0.639 2.086-1.617 3.032l-15.233 15.71c-1.244 1.204-2.633 1.849-4.167 1.936-0.044 0-0.094 0.005-0.15 0.016s-0.106 0.016-0.15 0.016z"></path>
</symbol>
<symbol id="menu-close" viewBox="0 0 32 32">
<path fill="#487996" style="fill: var(--color1, #487996)" d="M18.613 15.912l12.96-12.96c0.268-0.309 0.431-0.716 0.431-1.161 0-0.982-0.796-1.777-1.777-1.777-0.445 0-0.851 0.163-1.163 0.433l0.002-0.002-12.96 12.96-12.96-12.979c-0.309-0.268-0.716-0.431-1.161-0.431-0.982 0-1.777 0.796-1.777 1.777 0 0.445 0.163 0.851 0.433 1.163l-0.002-0.002 12.96 12.977-12.979 12.96c-0.394 0.329-0.642 0.82-0.642 1.369 0 0.983 0.797 1.78 1.78 1.78 0.549 0 1.040-0.249 1.367-0.639l0.002-0.003 12.977-12.96 12.96 12.96c0.309 0.268 0.716 0.431 1.161 0.431 0.982 0 1.777-0.796 1.777-1.777 0-0.445-0.163-0.851-0.433-1.163l0.002 0.002-12.96-12.96z"></path>
</symbol>
</defs>
</svg>